<mxfile host="app.diagrams.net" agent="Mozilla/5.0 (Macintosh; Intel Mac OS X 10_15_7) AppleWebKit/537.36 (KHTML, like Gecko) Chrome/136.0.0.0 Safari/537.36" version="27.0.3">
  <diagram name="第 1 页" id="_LfCLD-BcLMhoeE9aArY">
    <mxGraphModel dx="946" dy="610" grid="1" gridSize="10" guides="1" tooltips="1" connect="1" arrows="1" fold="1" page="1" pageScale="1" pageWidth="827" pageHeight="1169" math="0" shadow="0">
      <root>
        <mxCell id="0" />
        <mxCell id="1" parent="0" />
        <mxCell id="TkF-Xqs8CujWrDTiWps--1" value="" style="endArrow=classic;html=1;rounded=0;" edge="1" parent="1">
          <mxGeometry width="50" height="50" relative="1" as="geometry">
            <mxPoint x="160" y="360" as="sourcePoint" />
            <mxPoint x="160" y="150" as="targetPoint" />
          </mxGeometry>
        </mxCell>
        <mxCell id="TkF-Xqs8CujWrDTiWps--2" value="" style="endArrow=classic;html=1;rounded=0;" edge="1" parent="1">
          <mxGeometry width="50" height="50" relative="1" as="geometry">
            <mxPoint x="160" y="360" as="sourcePoint" />
            <mxPoint x="370" y="360" as="targetPoint" />
          </mxGeometry>
        </mxCell>
        <mxCell id="TkF-Xqs8CujWrDTiWps--3" value="服务程序" style="text;html=1;align=center;verticalAlign=middle;whiteSpace=wrap;rounded=0;" vertex="1" parent="1">
          <mxGeometry x="130" y="130" width="60" height="30" as="geometry" />
        </mxCell>
        <mxCell id="TkF-Xqs8CujWrDTiWps--4" value="t" style="text;html=1;align=center;verticalAlign=middle;whiteSpace=wrap;rounded=0;" vertex="1" parent="1">
          <mxGeometry x="340" y="360" width="60" height="30" as="geometry" />
        </mxCell>
        <mxCell id="TkF-Xqs8CujWrDTiWps--7" value="" style="group" vertex="1" connectable="0" parent="1">
          <mxGeometry x="110" y="170" width="60" height="30" as="geometry" />
        </mxCell>
        <mxCell id="TkF-Xqs8CujWrDTiWps--5" value="" style="endArrow=none;html=1;rounded=0;" edge="1" parent="TkF-Xqs8CujWrDTiWps--7">
          <mxGeometry width="50" height="50" relative="1" as="geometry">
            <mxPoint x="10" y="30" as="sourcePoint" />
            <mxPoint x="50" y="30" as="targetPoint" />
          </mxGeometry>
        </mxCell>
        <mxCell id="TkF-Xqs8CujWrDTiWps--6" value="程序1" style="text;html=1;align=center;verticalAlign=middle;whiteSpace=wrap;rounded=0;" vertex="1" parent="TkF-Xqs8CujWrDTiWps--7">
          <mxGeometry width="60" height="20" as="geometry" />
        </mxCell>
        <mxCell id="TkF-Xqs8CujWrDTiWps--8" value="" style="group" vertex="1" connectable="0" parent="1">
          <mxGeometry x="110" y="210" width="60" height="30" as="geometry" />
        </mxCell>
        <mxCell id="TkF-Xqs8CujWrDTiWps--9" value="" style="endArrow=none;html=1;rounded=0;" edge="1" parent="TkF-Xqs8CujWrDTiWps--8">
          <mxGeometry width="50" height="50" relative="1" as="geometry">
            <mxPoint x="10" y="30" as="sourcePoint" />
            <mxPoint x="50" y="30" as="targetPoint" />
          </mxGeometry>
        </mxCell>
        <mxCell id="TkF-Xqs8CujWrDTiWps--10" value="程序2" style="text;html=1;align=center;verticalAlign=middle;whiteSpace=wrap;rounded=0;" vertex="1" parent="TkF-Xqs8CujWrDTiWps--8">
          <mxGeometry width="60" height="20" as="geometry" />
        </mxCell>
        <mxCell id="TkF-Xqs8CujWrDTiWps--11" value="" style="group" vertex="1" connectable="0" parent="1">
          <mxGeometry x="110" y="250" width="60" height="30" as="geometry" />
        </mxCell>
        <mxCell id="TkF-Xqs8CujWrDTiWps--12" value="" style="endArrow=none;html=1;rounded=0;" edge="1" parent="TkF-Xqs8CujWrDTiWps--11">
          <mxGeometry width="50" height="50" relative="1" as="geometry">
            <mxPoint x="10" y="30" as="sourcePoint" />
            <mxPoint x="50" y="30" as="targetPoint" />
          </mxGeometry>
        </mxCell>
        <mxCell id="TkF-Xqs8CujWrDTiWps--13" value="程序3" style="text;html=1;align=center;verticalAlign=middle;whiteSpace=wrap;rounded=0;" vertex="1" parent="TkF-Xqs8CujWrDTiWps--11">
          <mxGeometry width="60" height="20" as="geometry" />
        </mxCell>
        <mxCell id="TkF-Xqs8CujWrDTiWps--14" value="" style="group" vertex="1" connectable="0" parent="1">
          <mxGeometry x="110" y="290" width="60" height="30" as="geometry" />
        </mxCell>
        <mxCell id="TkF-Xqs8CujWrDTiWps--15" value="" style="endArrow=none;html=1;rounded=0;" edge="1" parent="TkF-Xqs8CujWrDTiWps--14">
          <mxGeometry width="50" height="50" relative="1" as="geometry">
            <mxPoint x="10" y="30" as="sourcePoint" />
            <mxPoint x="50" y="30" as="targetPoint" />
          </mxGeometry>
        </mxCell>
        <mxCell id="TkF-Xqs8CujWrDTiWps--16" value="程序4" style="text;html=1;align=center;verticalAlign=middle;whiteSpace=wrap;rounded=0;" vertex="1" parent="TkF-Xqs8CujWrDTiWps--14">
          <mxGeometry width="60" height="20" as="geometry" />
        </mxCell>
        <mxCell id="TkF-Xqs8CujWrDTiWps--17" value="" style="endArrow=classic;html=1;rounded=0;" edge="1" parent="1">
          <mxGeometry width="50" height="50" relative="1" as="geometry">
            <mxPoint x="200" y="390" as="sourcePoint" />
            <mxPoint x="200" y="360" as="targetPoint" />
          </mxGeometry>
        </mxCell>
        <mxCell id="TkF-Xqs8CujWrDTiWps--18" value="1、2、3、4同时请求中断" style="text;html=1;align=center;verticalAlign=middle;whiteSpace=wrap;rounded=0;" vertex="1" parent="1">
          <mxGeometry x="200" y="370" width="150" height="30" as="geometry" />
        </mxCell>
      </root>
    </mxGraphModel>
  </diagram>
</mxfile>
